<svg width="96" height="96" viewBox="0 0 96 96" fill="none" xmlns="http://www.w3.org/2000/svg">
  <circle cx="48" cy="48" r="44" fill="#f10917"/>
  <circle cx="48" cy="48" r="42" stroke="#ffffff" stroke-width="5"/>
  <path
    fill="#ffffff"
    fill-rule="evenodd"
    d="M37.5 24.5h10l2.1 7.1c1.6.6 3.1 1.3 4.5 2.3l6.5-3.5 7.1 7.1-3.5 6.5c.9 1.4 1.7 2.9 2.3 4.5l7.1 2.1v10l-7.1 2.1c-.6 1.6-1.3 3.1-2.3 4.5l3.5 6.5-7.1 7.1-6.5-3.5c-1.4.9-2.9 1.7-4.5 2.3l-2.1 7.1h-10l-2.1-7.1c-1.6-.6-3.1-1.3-4.5-2.3l-6.5 3.5-7.1-7.1 3.5-6.5c-.9-1.4-1.7-2.9-2.3-4.5l-7.1-2.1v-10l7.1-2.1c.6-1.6 1.3-3.1 2.3-4.5l-3.5-6.5 7.1-7.1 6.5 3.5c1.4-.9 2.9-1.7 4.5-2.3l2.1-7.1Zm5 21.5a10.2 10.2 0 1 0 0 20.4 10.2 10.2 0 0 0 0-20.4Z"
  />
  <path
    fill="#ffffff"
    fill-rule="evenodd"
    d="M67.8 55.8h5.7l1.2 4c.9.3 1.7.8 2.5 1.3l3.7-2 4 4-2 3.7c.5.8.9 1.6 1.3 2.5l4 1.2v5.7l-4 1.2c-.3.9-.8 1.7-1.3 2.5l2 3.7-4 4-3.7-2c-.8.5-1.6.9-2.5 1.3l-1.2 4h-5.7l-1.2-4c-.9-.3-1.7-.8-2.5-1.3l-3.7 2-4-4 2-3.7c-.5-.8-.9-1.6-1.3-2.5l-4-1.2v-5.7l4-1.2c.3-.9.8-1.7 1.3-2.5l-2-3.7 4-4 3.7 2c.8-.5 1.6-.9 2.5-1.3l1.2-4Zm2.9 12.2a5.5 5.5 0 1 0 0 11 5.5 5.5 0 0 0 0-11Z"
  />
</svg>
